<svg id="visual" viewBox="0 0 900 600" width="900" height="600" xmlns="http://www.w3.org/2000/svg" xmlns:xlink="http://www.w3.org/1999/xlink" version="1.1"><g stroke-width="1" stroke-linejoin="bevel"><path d="M474.6 329.3L415.4 260.7L417.4 336.3Z" fill="#46484b" stroke="#46484b"></path><path d="M474.6 329.3L493.6 258.7L415.4 260.7Z" fill="#2f323a" stroke="#2f323a"></path><path d="M493.6 258.7L481.6 210L415.4 260.7Z" fill="#555555" stroke="#555555"></path><path d="M415.4 260.7L352.2 342.3L417.4 336.3Z" fill="#252a34" stroke="#252a34"></path><path d="M352.2 342.3L413.4 398L417.4 336.3Z" fill="#33363e" stroke="#33363e"></path><path d="M417.4 336.3L413.4 398L474.6 329.3Z" fill="#424347" stroke="#424347"></path><path d="M481.6 210L410.4 197L415.4 260.7Z" fill="#2f323a" stroke="#2f323a"></path><path d="M415.4 260.7L336.2 260.7L352.2 342.3Z" fill="#3d3f44" stroke="#3d3f44"></path><path d="M346.2 202L336.2 260.7L415.4 260.7Z" fill="#4b4c4e" stroke="#4b4c4e"></path><path d="M413.4 398L493.6 400L474.6 329.3Z" fill="#424347" stroke="#424347"></path><path d="M474.6 329.3L557.8 277.7L493.6 258.7Z" fill="#2a2e37" stroke="#2a2e37"></path><path d="M563.8 339.3L557.8 277.7L474.6 329.3Z" fill="#252a34" stroke="#252a34"></path><path d="M493.6 258.7L557.8 188L481.6 210Z" fill="#3d3f44" stroke="#3d3f44"></path><path d="M493.6 400L563.8 339.3L474.6 329.3Z" fill="#555555" stroke="#555555"></path><path d="M410.4 197L346.2 202L415.4 260.7Z" fill="#555555" stroke="#555555"></path><path d="M266.9 399L339.2 408L352.2 342.3Z" fill="#2f323a" stroke="#2f323a"></path><path d="M352.2 342.3L339.2 408L413.4 398Z" fill="#46484b" stroke="#46484b"></path><path d="M413.4 398L485.6 456.7L493.6 400Z" fill="#46484b" stroke="#46484b"></path><path d="M493.6 400L561.8 396L563.8 339.3Z" fill="#2a2e37" stroke="#2a2e37"></path><path d="M557.8 188L473.6 144.3L481.6 210Z" fill="#505152" stroke="#505152"></path><path d="M481.6 210L473.6 144.3L410.4 197Z" fill="#46484b" stroke="#46484b"></path><path d="M410.4 197L340.2 140.3L346.2 202Z" fill="#252a34" stroke="#252a34"></path><path d="M283.9 196L284.9 272.7L336.2 260.7Z" fill="#2f323a" stroke="#2f323a"></path><path d="M336.2 260.7L284.9 272.7L352.2 342.3Z" fill="#383b41" stroke="#383b41"></path><path d="M339.2 408L412.4 454.7L413.4 398Z" fill="#555555" stroke="#555555"></path><path d="M493.6 400L546.8 460.7L561.8 396Z" fill="#2a2e37" stroke="#2a2e37"></path><path d="M614.1 204L557.8 188L557.8 277.7Z" fill="#4b4c4e" stroke="#4b4c4e"></path><path d="M557.8 277.7L557.8 188L493.6 258.7Z" fill="#555555" stroke="#555555"></path><path d="M412.4 454.7L485.6 456.7L413.4 398Z" fill="#4b4c4e" stroke="#4b4c4e"></path><path d="M625.1 332.3L557.8 277.7L563.8 339.3Z" fill="#2a2e37" stroke="#2a2e37"></path><path d="M625.1 332.3L618.1 268.7L557.8 277.7Z" fill="#2a2e37" stroke="#2a2e37"></path><path d="M284.9 272.7L264.9 325.3L352.2 342.3Z" fill="#33363e" stroke="#33363e"></path><path d="M473.6 144.3L408.4 121.3L410.4 197Z" fill="#252a34" stroke="#252a34"></path><path d="M346.2 202L283.9 196L336.2 260.7Z" fill="#2a2e37" stroke="#2a2e37"></path><path d="M625.1 388L625.1 332.3L563.8 339.3Z" fill="#2a2e37" stroke="#2a2e37"></path><path d="M408.4 121.3L340.2 140.3L410.4 197Z" fill="#4b4c4e" stroke="#4b4c4e"></path><path d="M340.2 140.3L283.9 196L346.2 202Z" fill="#424347" stroke="#424347"></path><path d="M196.7 256.7L200.7 340.3L264.9 325.3Z" fill="#383b41" stroke="#383b41"></path><path d="M613.1 139.3L556.8 142.3L557.8 188Z" fill="#2a2e37" stroke="#2a2e37"></path><path d="M557.8 188L556.8 142.3L473.6 144.3Z" fill="#2a2e37" stroke="#2a2e37"></path><path d="M473.6 144.3L475.6 62.7L408.4 121.3Z" fill="#555555" stroke="#555555"></path><path d="M485.6 456.7L546.8 460.7L493.6 400Z" fill="#2f323a" stroke="#2f323a"></path><path d="M561.8 396L625.1 388L563.8 339.3Z" fill="#3d3f44" stroke="#3d3f44"></path><path d="M476.6 522.3L546.8 460.7L485.6 456.7Z" fill="#2a2e37" stroke="#2a2e37"></path><path d="M618.1 268.7L614.1 204L557.8 277.7Z" fill="#46484b" stroke="#46484b"></path><path d="M686.3 254.7L614.1 204L618.1 268.7Z" fill="#4b4c4e" stroke="#4b4c4e"></path><path d="M264.9 325.3L266.9 399L352.2 342.3Z" fill="#4b4c4e" stroke="#4b4c4e"></path><path d="M339.2 408L342.2 477.7L412.4 454.7Z" fill="#2a2e37" stroke="#2a2e37"></path><path d="M620.1 458.7L625.1 388L561.8 396Z" fill="#46484b" stroke="#46484b"></path><path d="M267.9 455.7L342.2 477.7L339.2 408Z" fill="#46484b" stroke="#46484b"></path><path d="M412.4 454.7L476.6 522.3L485.6 456.7Z" fill="#252a34" stroke="#252a34"></path><path d="M403.4 544.3L476.6 522.3L412.4 454.7Z" fill="#2a2e37" stroke="#2a2e37"></path><path d="M685.3 140.3L613.1 139.3L614.1 204Z" fill="#383b41" stroke="#383b41"></path><path d="M614.1 204L613.1 139.3L557.8 188Z" fill="#46484b" stroke="#46484b"></path><path d="M556.8 142.3L475.6 62.7L473.6 144.3Z" fill="#2f323a" stroke="#2f323a"></path><path d="M266.9 399L267.9 455.7L339.2 408Z" fill="#252a34" stroke="#252a34"></path><path d="M342.2 477.7L403.4 544.3L412.4 454.7Z" fill="#505152" stroke="#505152"></path><path d="M200.7 400L267.9 455.7L266.9 399Z" fill="#505152" stroke="#505152"></path><path d="M561.8 67.7L475.6 62.7L556.8 142.3Z" fill="#33363e" stroke="#33363e"></path><path d="M408.4 121.3L357.2 74.7L340.2 140.3Z" fill="#424347" stroke="#424347"></path><path d="M414.4 59.7L357.2 74.7L408.4 121.3Z" fill="#46484b" stroke="#46484b"></path><path d="M340.2 140.3L268.9 129.3L283.9 196Z" fill="#2a2e37" stroke="#2a2e37"></path><path d="M475.6 62.7L414.4 59.7L408.4 121.3Z" fill="#555555" stroke="#555555"></path><path d="M552.8 528.3L620.1 458.7L546.8 460.7Z" fill="#555555" stroke="#555555"></path><path d="M546.8 460.7L620.1 458.7L561.8 396Z" fill="#4b4c4e" stroke="#4b4c4e"></path><path d="M277.9 68.7L268.9 129.3L340.2 140.3Z" fill="#2f323a" stroke="#2f323a"></path><path d="M196.7 256.7L264.9 325.3L284.9 272.7Z" fill="#2f323a" stroke="#2f323a"></path><path d="M625.1 388L682.3 335.3L625.1 332.3Z" fill="#505152" stroke="#505152"></path><path d="M625.1 332.3L682.3 335.3L618.1 268.7Z" fill="#2f323a" stroke="#2f323a"></path><path d="M696.3 405L682.3 335.3L625.1 388Z" fill="#252a34" stroke="#252a34"></path><path d="M196.7 256.7L284.9 272.7L283.9 196Z" fill="#424347" stroke="#424347"></path><path d="M264.9 325.3L200.7 340.3L266.9 399Z" fill="#46484b" stroke="#46484b"></path><path d="M682.3 335.3L686.3 254.7L618.1 268.7Z" fill="#252a34" stroke="#252a34"></path><path d="M208.7 188L196.7 256.7L283.9 196Z" fill="#46484b" stroke="#46484b"></path><path d="M340.2 537.3L403.4 544.3L342.2 477.7Z" fill="#3d3f44" stroke="#3d3f44"></path><path d="M495.6 600L552.8 528.3L476.6 522.3Z" fill="#383b41" stroke="#383b41"></path><path d="M476.6 522.3L552.8 528.3L546.8 460.7Z" fill="#2f323a" stroke="#2f323a"></path><path d="M268.9 129.3L208.7 188L283.9 196Z" fill="#46484b" stroke="#46484b"></path><path d="M613.1 139.3L561.8 67.7L556.8 142.3Z" fill="#46484b" stroke="#46484b"></path><path d="M270.9 541.3L340.2 537.3L342.2 477.7Z" fill="#383b41" stroke="#383b41"></path><path d="M126.5 404L200.7 400L200.7 340.3Z" fill="#2a2e37" stroke="#2a2e37"></path><path d="M200.7 340.3L200.7 400L266.9 399Z" fill="#46484b" stroke="#46484b"></path><path d="M267.9 455.7L270.9 541.3L342.2 477.7Z" fill="#4b4c4e" stroke="#4b4c4e"></path><path d="M751.5 201L701.3 208L765.5 272.7Z" fill="#2a2e37" stroke="#2a2e37"></path><path d="M686.3 254.7L701.3 208L614.1 204Z" fill="#46484b" stroke="#46484b"></path><path d="M613.1 139.3L623.1 73.7L561.8 67.7Z" fill="#252a34" stroke="#252a34"></path><path d="M620.1 458.7L696.3 405L625.1 388Z" fill="#252a34" stroke="#252a34"></path><path d="M682.3 335.3L765.5 272.7L686.3 254.7Z" fill="#424347" stroke="#424347"></path><path d="M686.3 473.7L696.3 405L620.1 458.7Z" fill="#252a34" stroke="#252a34"></path><path d="M357.2 74.7L277.9 68.7L340.2 140.3Z" fill="#252a34" stroke="#252a34"></path><path d="M268.9 129.3L204.7 135.3L208.7 188Z" fill="#46484b" stroke="#46484b"></path><path d="M340.2 0L277.9 68.7L357.2 74.7Z" fill="#3d3f44" stroke="#3d3f44"></path><path d="M200.7 400L211.7 466.7L267.9 455.7Z" fill="#2a2e37" stroke="#2a2e37"></path><path d="M211.7 55.7L204.7 135.3L268.9 129.3Z" fill="#46484b" stroke="#46484b"></path><path d="M129.5 272.7L146.5 321.3L196.7 256.7Z" fill="#3d3f44" stroke="#3d3f44"></path><path d="M685.3 140.3L623.1 73.7L613.1 139.3Z" fill="#2f323a" stroke="#2f323a"></path><path d="M701.3 208L685.3 140.3L614.1 204Z" fill="#252a34" stroke="#252a34"></path><path d="M557.8 600L617.1 529.3L552.8 528.3Z" fill="#3d3f44" stroke="#3d3f44"></path><path d="M552.8 528.3L617.1 529.3L620.1 458.7Z" fill="#3d3f44" stroke="#3d3f44"></path><path d="M196.7 256.7L146.5 321.3L200.7 340.3Z" fill="#33363e" stroke="#33363e"></path><path d="M200.7 400L143.5 473.7L211.7 466.7Z" fill="#424347" stroke="#424347"></path><path d="M129.5 272.7L196.7 256.7L142.5 198Z" fill="#505152" stroke="#505152"></path><path d="M211.7 466.7L270.9 541.3L267.9 455.7Z" fill="#4b4c4e" stroke="#4b4c4e"></path><path d="M338.2 600L419.4 600L403.4 544.3Z" fill="#424347" stroke="#424347"></path><path d="M475.6 62.7L425.4 0L414.4 59.7Z" fill="#4b4c4e" stroke="#4b4c4e"></path><path d="M414.4 59.7L340.2 0L357.2 74.7Z" fill="#252a34" stroke="#252a34"></path><path d="M476.6 0L425.4 0L475.6 62.7Z" fill="#555555" stroke="#555555"></path><path d="M476.6 0L475.6 62.7L544.8 0Z" fill="#252a34" stroke="#252a34"></path><path d="M544.8 0L475.6 62.7L561.8 67.7Z" fill="#2a2e37" stroke="#2a2e37"></path><path d="M617.1 529.3L686.3 473.7L620.1 458.7Z" fill="#505152" stroke="#505152"></path><path d="M338.2 600L403.4 544.3L340.2 537.3Z" fill="#33363e" stroke="#33363e"></path><path d="M403.4 544.3L419.4 600L476.6 522.3Z" fill="#46484b" stroke="#46484b"></path><path d="M419.4 600L495.6 600L476.6 522.3Z" fill="#2a2e37" stroke="#2a2e37"></path><path d="M142.5 198L196.7 256.7L208.7 188Z" fill="#46484b" stroke="#46484b"></path><path d="M425.4 0L340.2 0L414.4 59.7Z" fill="#555555" stroke="#555555"></path><path d="M277.9 68.7L211.7 55.7L268.9 129.3Z" fill="#33363e" stroke="#33363e"></path><path d="M622.1 0L544.8 0L561.8 67.7Z" fill="#33363e" stroke="#33363e"></path><path d="M136.5 142.3L142.5 198L208.7 188Z" fill="#4b4c4e" stroke="#4b4c4e"></path><path d="M278.9 600L338.2 600L340.2 537.3Z" fill="#3d3f44" stroke="#3d3f44"></path><path d="M495.6 600L557.8 600L552.8 528.3Z" fill="#4b4c4e" stroke="#4b4c4e"></path><path d="M617.1 529.3L689.3 541.3L686.3 473.7Z" fill="#2a2e37" stroke="#2a2e37"></path><path d="M752.5 399L682.3 335.3L696.3 405Z" fill="#252a34" stroke="#252a34"></path><path d="M752.5 399L764.5 327.3L682.3 335.3Z" fill="#33363e" stroke="#33363e"></path><path d="M701.3 208L751.5 201L685.3 140.3Z" fill="#46484b" stroke="#46484b"></path><path d="M765.5 272.7L701.3 208L686.3 254.7Z" fill="#33363e" stroke="#33363e"></path><path d="M685.3 140.3L683.3 67.7L623.1 73.7Z" fill="#33363e" stroke="#33363e"></path><path d="M764.5 327.3L765.5 272.7L682.3 335.3Z" fill="#505152" stroke="#505152"></path><path d="M769.5 475.7L752.5 399L696.3 405Z" fill="#46484b" stroke="#46484b"></path><path d="M211.7 466.7L202.7 525.3L270.9 541.3Z" fill="#46484b" stroke="#46484b"></path><path d="M270.9 541.3L278.9 600L340.2 537.3Z" fill="#555555" stroke="#555555"></path><path d="M143.5 473.7L202.7 525.3L211.7 466.7Z" fill="#252a34" stroke="#252a34"></path><path d="M126.5 404L200.7 340.3L146.5 321.3Z" fill="#2a2e37" stroke="#2a2e37"></path><path d="M78.2 325.3L126.5 404L146.5 321.3Z" fill="#2f323a" stroke="#2f323a"></path><path d="M763.5 123.3L683.3 67.7L685.3 140.3Z" fill="#3d3f44" stroke="#3d3f44"></path><path d="M623.1 73.7L622.1 0L561.8 67.7Z" fill="#383b41" stroke="#383b41"></path><path d="M270.9 0L211.7 55.7L277.9 68.7Z" fill="#424347" stroke="#424347"></path><path d="M204.7 135.3L136.5 142.3L208.7 188Z" fill="#383b41" stroke="#383b41"></path><path d="M134.5 64.7L136.5 142.3L204.7 135.3Z" fill="#252a34" stroke="#252a34"></path><path d="M58.2 266.7L78.2 325.3L129.5 272.7Z" fill="#2f323a" stroke="#2f323a"></path><path d="M206.7 600L278.9 600L270.9 541.3Z" fill="#252a34" stroke="#252a34"></path><path d="M340.2 0L270.9 0L277.9 68.7Z" fill="#4b4c4e" stroke="#4b4c4e"></path><path d="M126.5 404L143.5 473.7L200.7 400Z" fill="#4b4c4e" stroke="#4b4c4e"></path><path d="M202.7 525.3L206.7 600L270.9 541.3Z" fill="#2a2e37" stroke="#2a2e37"></path><path d="M628.1 600L689.3 541.3L617.1 529.3Z" fill="#3d3f44" stroke="#3d3f44"></path><path d="M686.3 473.7L769.5 475.7L696.3 405Z" fill="#252a34" stroke="#252a34"></path><path d="M683.3 67.7L622.1 0L623.1 73.7Z" fill="#505152" stroke="#505152"></path><path d="M557.8 600L628.1 600L617.1 529.3Z" fill="#252a34" stroke="#252a34"></path><path d="M129.5 272.7L78.2 325.3L146.5 321.3Z" fill="#505152" stroke="#505152"></path><path d="M126.5 404L66.2 470.7L143.5 473.7Z" fill="#4b4c4e" stroke="#4b4c4e"></path><path d="M58.2 266.7L129.5 272.7L64.2 206Z" fill="#3d3f44" stroke="#3d3f44"></path><path d="M751.5 201L763.5 123.3L685.3 140.3Z" fill="#383b41" stroke="#383b41"></path><path d="M683.3 67.7L686.3 0L622.1 0Z" fill="#252a34" stroke="#252a34"></path><path d="M838.8 191L763.5 123.3L751.5 201Z" fill="#2a2e37" stroke="#2a2e37"></path><path d="M764.5 528.3L686.3 473.7L689.3 541.3Z" fill="#252a34" stroke="#252a34"></path><path d="M764.5 528.3L769.5 475.7L686.3 473.7Z" fill="#252a34" stroke="#252a34"></path><path d="M752.5 399L823.8 332.3L764.5 327.3Z" fill="#2f323a" stroke="#2f323a"></path><path d="M764.5 327.3L823.8 332.3L765.5 272.7Z" fill="#2f323a" stroke="#2f323a"></path><path d="M765.5 272.7L838.8 191L751.5 201Z" fill="#424347" stroke="#424347"></path><path d="M138.5 600L206.7 600L202.7 525.3Z" fill="#383b41" stroke="#383b41"></path><path d="M841.8 395L823.8 332.3L752.5 399Z" fill="#2a2e37" stroke="#2a2e37"></path><path d="M211.7 55.7L134.5 64.7L204.7 135.3Z" fill="#4b4c4e" stroke="#4b4c4e"></path><path d="M270.9 0L199.7 0L211.7 55.7Z" fill="#4b4c4e" stroke="#4b4c4e"></path><path d="M64.2 206L142.5 198L136.5 142.3Z" fill="#4b4c4e" stroke="#4b4c4e"></path><path d="M64.2 206L129.5 272.7L142.5 198Z" fill="#424347" stroke="#424347"></path><path d="M763.5 64.7L686.3 0L683.3 67.7Z" fill="#383b41" stroke="#383b41"></path><path d="M199.7 0L134.5 64.7L211.7 55.7Z" fill="#252a34" stroke="#252a34"></path><path d="M0 334.3L68.2 403L78.2 325.3Z" fill="#252a34" stroke="#252a34"></path><path d="M78.2 325.3L68.2 403L126.5 404Z" fill="#424347" stroke="#424347"></path><path d="M143.5 473.7L129.5 540.3L202.7 525.3Z" fill="#252a34" stroke="#252a34"></path><path d="M77.2 121.3L64.2 206L136.5 142.3Z" fill="#2f323a" stroke="#2f323a"></path><path d="M628.1 600L694.3 600L689.3 541.3Z" fill="#555555" stroke="#555555"></path><path d="M75.2 533.3L129.5 540.3L143.5 473.7Z" fill="#505152" stroke="#505152"></path><path d="M823.8 332.3L837.8 277.7L765.5 272.7Z" fill="#33363e" stroke="#33363e"></path><path d="M762.5 600L764.5 528.3L689.3 541.3Z" fill="#2a2e37" stroke="#2a2e37"></path><path d="M840.8 454.7L841.8 395L752.5 399Z" fill="#46484b" stroke="#46484b"></path><path d="M829.8 74.7L763.5 64.7L763.5 123.3Z" fill="#505152" stroke="#505152"></path><path d="M763.5 123.3L763.5 64.7L683.3 67.7Z" fill="#383b41" stroke="#383b41"></path><path d="M134.5 64.7L77.2 121.3L136.5 142.3Z" fill="#33363e" stroke="#33363e"></path><path d="M77.2 76.7L77.2 121.3L134.5 64.7Z" fill="#383b41" stroke="#383b41"></path><path d="M837.8 277.7L838.8 191L765.5 272.7Z" fill="#3d3f44" stroke="#3d3f44"></path><path d="M840.8 454.7L752.5 399L769.5 475.7Z" fill="#3d3f44" stroke="#3d3f44"></path><path d="M900 327.3L900 277.7L837.8 277.7Z" fill="#2a2e37" stroke="#2a2e37"></path><path d="M837.8 277.7L900 203L838.8 191Z" fill="#2f323a" stroke="#2f323a"></path><path d="M0 465.7L66.2 470.7L68.2 403Z" fill="#33363e" stroke="#33363e"></path><path d="M68.2 403L66.2 470.7L126.5 404Z" fill="#2f323a" stroke="#2f323a"></path><path d="M838.8 191L825.8 122.3L763.5 123.3Z" fill="#4b4c4e" stroke="#4b4c4e"></path><path d="M199.7 0L138.5 0L134.5 64.7Z" fill="#252a34" stroke="#252a34"></path><path d="M61.2 0L77.2 76.7L134.5 64.7Z" fill="#33363e" stroke="#33363e"></path><path d="M0 208L58.2 266.7L64.2 206Z" fill="#2a2e37" stroke="#2a2e37"></path><path d="M60.2 600L138.5 600L129.5 540.3Z" fill="#46484b" stroke="#46484b"></path><path d="M129.5 540.3L138.5 600L202.7 525.3Z" fill="#33363e" stroke="#33363e"></path><path d="M824.8 524.3L840.8 454.7L769.5 475.7Z" fill="#383b41" stroke="#383b41"></path><path d="M824.8 524.3L769.5 475.7L764.5 528.3Z" fill="#4b4c4e" stroke="#4b4c4e"></path><path d="M830.8 0L758.5 0L763.5 64.7Z" fill="#2a2e37" stroke="#2a2e37"></path><path d="M763.5 64.7L758.5 0L686.3 0Z" fill="#46484b" stroke="#46484b"></path><path d="M66.2 470.7L75.2 533.3L143.5 473.7Z" fill="#33363e" stroke="#33363e"></path><path d="M694.3 600L762.5 600L689.3 541.3Z" fill="#2f323a" stroke="#2f323a"></path><path d="M0 208L0 267.7L58.2 266.7Z" fill="#46484b" stroke="#46484b"></path><path d="M58.2 266.7L0 334.3L78.2 325.3Z" fill="#4b4c4e" stroke="#4b4c4e"></path><path d="M66.2 470.7L0 534.3L75.2 533.3Z" fill="#33363e" stroke="#33363e"></path><path d="M0 208L64.2 206L0 126.3Z" fill="#383b41" stroke="#383b41"></path><path d="M0 267.7L0 334.3L58.2 266.7Z" fill="#555555" stroke="#555555"></path><path d="M762.5 600L824.8 524.3L764.5 528.3Z" fill="#555555" stroke="#555555"></path><path d="M825.8 122.3L829.8 74.7L763.5 123.3Z" fill="#3d3f44" stroke="#3d3f44"></path><path d="M900 123.3L829.8 74.7L825.8 122.3Z" fill="#505152" stroke="#505152"></path><path d="M0 126.3L64.2 206L77.2 121.3Z" fill="#4b4c4e" stroke="#4b4c4e"></path><path d="M0 334.3L0 390L68.2 403Z" fill="#33363e" stroke="#33363e"></path><path d="M900 327.3L837.8 277.7L823.8 332.3Z" fill="#424347" stroke="#424347"></path><path d="M838.8 191L900 123.3L825.8 122.3Z" fill="#46484b" stroke="#46484b"></path><path d="M900 327.3L823.8 332.3L841.8 395Z" fill="#252a34" stroke="#252a34"></path><path d="M900 327.3L841.8 395L900 411Z" fill="#33363e" stroke="#33363e"></path><path d="M900 411L841.8 395L840.8 454.7Z" fill="#3d3f44" stroke="#3d3f44"></path><path d="M900 277.7L900 203L837.8 277.7Z" fill="#424347" stroke="#424347"></path><path d="M900 467.7L900 411L840.8 454.7Z" fill="#3d3f44" stroke="#3d3f44"></path><path d="M0 390L0 465.7L68.2 403Z" fill="#424347" stroke="#424347"></path><path d="M75.2 533.3L60.2 600L129.5 540.3Z" fill="#33363e" stroke="#33363e"></path><path d="M77.2 76.7L0 126.3L77.2 121.3Z" fill="#33363e" stroke="#33363e"></path><path d="M0 55.7L0 126.3L77.2 76.7Z" fill="#555555" stroke="#555555"></path><path d="M138.5 0L61.2 0L134.5 64.7Z" fill="#2a2e37" stroke="#2a2e37"></path><path d="M0 534.3L60.2 600L75.2 533.3Z" fill="#424347" stroke="#424347"></path><path d="M900 524.3L900 467.7L840.8 454.7Z" fill="#252a34" stroke="#252a34"></path><path d="M900 524.3L840.8 454.7L824.8 524.3Z" fill="#2a2e37" stroke="#2a2e37"></path><path d="M900 65.7L830.8 0L829.8 74.7Z" fill="#252a34" stroke="#252a34"></path><path d="M829.8 74.7L830.8 0L763.5 64.7Z" fill="#505152" stroke="#505152"></path><path d="M900 203L900 123.3L838.8 191Z" fill="#33363e" stroke="#33363e"></path><path d="M762.5 600L840.8 600L824.8 524.3Z" fill="#252a34" stroke="#252a34"></path><path d="M0 465.7L0 534.3L66.2 470.7Z" fill="#2a2e37" stroke="#2a2e37"></path><path d="M61.2 0L0 55.7L77.2 76.7Z" fill="#33363e" stroke="#33363e"></path><path d="M840.8 600L900 524.3L824.8 524.3Z" fill="#505152" stroke="#505152"></path><path d="M900 123.3L900 65.7L829.8 74.7Z" fill="#3d3f44" stroke="#3d3f44"></path><path d="M61.2 0L0 0L0 55.7Z" fill="#383b41" stroke="#383b41"></path><path d="M0 534.3L0 600L60.2 600Z" fill="#46484b" stroke="#46484b"></path><path d="M900 65.7L900 0L830.8 0Z" fill="#46484b" stroke="#46484b"></path><path d="M840.8 600L900 600L900 524.3Z" fill="#3d3f44" stroke="#3d3f44"></path></g></svg>